<svg xmlns="http://www.w3.org/2000/svg" width="900" height="420" viewBox="0 0 900 420">
  <rect width="900" height="420" fill="#f8f4eb"/>
  <text x="450" y="45" text-anchor="middle" font-size="22" font-weight="600" fill="#111">Leonardo//thek@ 平台结构</text>
  
  <g>
    <rect x="60" y="90" width="240" height="90" rx="6" fill="#fff" stroke="#111" stroke-width="1.5"/>
    <text x="180" y="130" text-anchor="middle" font-size="15" fill="#111">Foliations &amp; Recompositions</text>
    <text x="180" y="152" text-anchor="middle" font-size="12" fill="#5f5a52">页码系统与虚拟复原</text>
  </g>
  
  <g>
    <rect x="330" y="90" width="240" height="90" rx="6" fill="#fff" stroke="#111" stroke-width="1.5"/>
    <text x="450" y="130" text-anchor="middle" font-size="15" fill="#111">Subject Indexes &amp; Lexicon</text>
    <text x="450" y="152" text-anchor="middle" font-size="12" fill="#5f5a52">主题索引与术语库</text>
  </g>
  
  <g>
    <rect x="600" y="90" width="240" height="90" rx="6" fill="#fff" stroke="#111" stroke-width="1.5"/>
    <text x="720" y="130" text-anchor="middle" font-size="15" fill="#111">Watermarks &amp; Plates</text>
    <text x="720" y="152" text-anchor="middle" font-size="12" fill="#5f5a52">水印与高分辨率影像</text>
  </g>
  
  <g>
    <rect x="195" y="220" width="240" height="90" rx="6" fill="#fff" stroke="#111" stroke-width="1.5"/>
    <text x="315" y="260" text-anchor="middle" font-size="15" fill="#111">Advanced Search</text>
    <text x="315" y="282" text-anchor="middle" font-size="12" fill="#5f5a52">高级检索与比较研究</text>
  </g>
  
  <g>
    <rect x="465" y="220" width="240" height="90" rx="6" fill="#fff" stroke="#111" stroke-width="1.5"/>
    <text x="585" y="260" text-anchor="middle" font-size="15" fill="#111">Bibliography &amp; Codex</text>
    <text x="585" y="282" text-anchor="middle" font-size="12" fill="#5f5a52">参考文献与手稿整合</text>
  </g>
  
  <line x1="180" y1="180" x2="315" y2="220" stroke="#8B4513" stroke-width="1.5"/>
  <line x1="450" y1="180" x2="450" y2="220" stroke="#8B4513" stroke-width="1.5"/>
  <line x1="720" y1="180" x2="585" y2="220" stroke="#8B4513" stroke-width="1.5"/>
  
  <text x="450" y="380" text-anchor="middle" font-size="13" fill="#5f5a52">Codex Atlanticus + Royal Collection (Windsor) 整合研究平台</text>
</svg>